<?xml version="1.0" standalone="no"?>
<!DOCTYPE svg PUBLIC "-//W3C//DTD SVG 20010904//EN"
 "http://www.w3.org/TR/2001/REC-SVG-20010904/DTD/svg10.dtd">
<svg version="1.0" xmlns="http://www.w3.org/2000/svg"
 width="191.000000pt" height="191.000000pt" viewBox="0 0 191.000000 191.000000"
 preserveAspectRatio="xMidYMid meet">
<metadata>
Created by potrace 1.14, written by Peter Selinger 2001-2017
</metadata>
<g transform="translate(0.000000,191.000000) scale(0.100000,-0.100000)"
fill="#000000" stroke="none">
<path d="M113 1231 c-11 -11 -34 -26 -52 -35 -42 -22 -57 -60 -36 -92 18 -29
35 -31 35 -6 0 11 9 27 20 37 l21 19 -2 -206 -1 -206 -29 5 c-39 6 -36 -25 3
-40 10 -3 18 -13 18 -22 0 -17 11 -19 54 -6 17 5 54 14 81 21 77 18 125 73
125 146 0 29 -7 44 -33 68 l-33 31 38 28 c72 51 87 141 32 198 -31 32 -70 48
-136 53 -25 2 -54 9 -65 15 -16 8 -24 6 -40 -8z m154 -85 c57 -29 61 -87 9
-139 -28 -28 -103 -63 -114 -53 -3 4 -5 91 -3 174 l1 43 39 -5 c22 -3 52 -11
68 -20z m-19 -245 c32 -17 43 -69 23 -106 -20 -37 -89 -74 -101 -55 -4 7 -8
51 -9 97 l-2 85 34 -5 c18 -2 43 -10 55 -16z"/>
<path d="M881 1196 c-14 -17 -13 -424 1 -442 4 -6 19 -9 31 -7 22 4 23 8 17
51 -7 40 -5 48 18 69 14 13 28 23 33 23 9 0 24 -48 34 -103 8 -50 37 -76 78
-70 43 7 44 8 9 38 -22 19 -34 41 -43 80 -7 30 -20 62 -29 70 -16 15 -16 18
10 45 26 28 46 77 36 87 -12 12 -61 -15 -64 -35 -2 -11 -21 -40 -43 -64 l-40
-43 6 158 5 157 -24 0 c-13 0 -29 -6 -35 -14z"/>
<path d="M1135 1116 c-15 -23 -12 -55 6 -57 5 -1 15 -2 22 -3 36 -6 65 65 31
78 -28 11 -43 6 -59 -18z m49 -21 c-4 -8 -14 -15 -23 -15 -14 1 -13 3 3 15 25
19 27 19 20 0z"/>
<path d="M448 1002 c-35 -37 -48 -66 -52 -110 -7 -88 41 -157 103 -148 66 10
101 65 97 153 -3 69 -33 118 -72 118 -16 0 -34 3 -40 7 -6 4 -22 -5 -36 -20z
m97 -77 c8 -51 -11 -123 -37 -139 -14 -8 -22 -7 -35 7 -22 21 -25 139 -5 159
9 9 12 9 12 -2 1 -11 3 -11 11 3 5 9 18 17 29 17 15 0 20 -10 25 -45z"/>
<path d="M663 983 c-22 -29 -28 -49 -31 -103 -4 -64 -2 -69 28 -103 34 -39 49
-43 98 -26 57 20 88 120 61 200 -18 54 -35 67 -85 67 -39 0 -47 -4 -71 -35z
m114 -80 c3 -46 0 -65 -16 -90 -12 -18 -27 -33 -36 -33 -34 0 -53 98 -30 160
9 22 14 28 14 16 1 -19 2 -18 22 3 29 31 42 15 46 -56z"/>
<path d="M1146 1011 c-17 -6 -18 -19 -17 -130 0 -67 3 -126 6 -131 3 -5 15 -6
26 -1 18 6 22 17 24 67 2 32 6 92 10 132 7 77 2 83 -49 63z"/>
</g>
</svg>
